<svg width="64" height="64" viewBox="0 0 64 64" fill="none" xmlns="http://www.w3.org/2000/svg">
  <rect width="64" height="64" rx="14" fill="#071F4E"/>
  <circle cx="32" cy="32" r="21" fill="#FFFFFF"/>
  <path d="M18 24H35" stroke="#1769E0" stroke-width="5" stroke-linecap="round"/>
  <path d="M18 32H32" stroke="#1769E0" stroke-width="5" stroke-linecap="round"/>
  <path d="M18 40H36" stroke="#1769E0" stroke-width="5" stroke-linecap="round"/>
  <path d="M41 23L50 41" stroke="#071F4E" stroke-width="5" stroke-linecap="round"/>
  <path d="M50 23L41 41" stroke="#071F4E" stroke-width="5" stroke-linecap="round"/>
  <circle cx="25" cy="28" r="2.2" fill="#071F4E"/>
  <circle cx="32" cy="28" r="2.2" fill="#071F4E"/>
  <path d="M25 35C27 37 31 37 33 35" stroke="#071F4E" stroke-width="2.6" stroke-linecap="round"/>
  <path d="M48 8L50 13L55 15L50 17L48 22L46 17L41 15L46 13L48 8Z" fill="#9BEA21"/>
  <path d="M12 46L13.5 50L18 51.5L13.5 53L12 57L10.5 53L6 51.5L10.5 50L12 46Z" fill="#9BEA21"/>
</svg>
